<?xml version="1.0" encoding="UTF-8" standalone="no"?>
<svg
   xmlns:dc="http://purl.org/dc/elements/1.1/"
   xmlns:cc="http://creativecommons.org/ns#"
   xmlns:rdf="http://www.w3.org/1999/02/22-rdf-syntax-ns#"
   xmlns:svg="http://www.w3.org/2000/svg"
   xmlns="http://www.w3.org/2000/svg"
   id="svg8"
   version="1.1"
   viewBox="0 0 264.58333 264.58334"
   height="1000"
   width="1000">
  <defs
     id="defs2" />
  <metadata
     id="metadata5">
    <rdf:RDF>
      <cc:Work
         rdf:about="">
        <dc:format>image/svg+xml</dc:format>
        <dc:type
           rdf:resource="http://purl.org/dc/dcmitype/StillImage" />
        <dc:title></dc:title>
      </cc:Work>
    </rdf:RDF>
  </metadata>
  <g
     transform="translate(0,-32.41665)"
     id="layer1">
    <g
       id="flowRoot3721"
       style="font-style:normal;font-variant:normal;font-weight:normal;font-stretch:normal;font-size:40px;line-height:1.25;font-family:Chandas;-inkscape-font-specification:Chandas;letter-spacing:0px;word-spacing:0px;fill:#000000;fill-opacity:1;stroke:none"
       transform="matrix(1.5571015,0,0,1.5571015,-276.56005,-131.74735)"
       aria-label="Corsify">
      <path
         id="path3729"
         style="font-style:normal;font-variant:normal;font-weight:normal;font-stretch:normal;font-family:Purisa;-inkscape-font-specification:Purisa"
         d="m 210.72837,189.94935 q 0,0.48 -0.68,1.8 -0.64,1.32 -1.92,3.04 -1.24,1.72 -2.8,3.32 -1.52,1.56 -3.56,2.64 -2.04,1.08 -4,1.08 -4.84,0 -7.84,-6.16 -0.4,-0.8 -0.4,-5.44 0,-8.36 0.8,-11.16 1,-3.68 4.92,-6.44 3.92,-2.8 7.44,-2.8 1.84,0 3.36,1.2 1.56,1.16 1.56,2.6 0,0.52 -0.6,0.52 -0.44,0 -0.92,-0.28 -0.48,-0.28 -0.72,-0.72 -0.4,-0.88 -1.24,-0.88 -2.08,0 -5.04,1.4 -2.92,1.4 -4.48,3.12 -1.32,1.44 -2,4.44 -0.68,3 -0.68,9.08 0,2.88 0.76,4.68 0.76,1.8 2.2,2.92 1.44,1.12 2.96,1.12 1.04,0 2.92,-0.88 1.88,-0.88 2.64,-1.72 l 2.04,-2.04 q 0.96,-0.92 2,-2.36 1.08,-1.48 1.72,-2.36 0.68,-0.88 1.12,-0.88 0.44,0 0.44,1.16 z" />
      <path
         id="path3731"
         style="font-style:normal;font-variant:normal;font-weight:normal;font-stretch:normal;font-family:Purisa;-inkscape-font-specification:Purisa"
         d="m 219.88834,184.26935 q 3.12,-2.92 5.24,-3.84 2.16,-0.96 5.44,-0.96 4.96,0 6.2,2.96 0.76,1.76 0.76,4.32 0,4.24 -1.88,8.6 -1.88,4.32 -4.64,6 -2.68,1.64 -5.64,1.64 -4.12,0 -6.6,-2.84 -1.72,-2 -2.24,-3.36 -0.52,-1.4 -0.52,-3.96 0,-4.84 3.88,-8.56 z m 6.44,16.44 q 3.36,0 6.08,-4.6 2.76,-4.64 2.76,-10.48 0,-0.88 -0.2,-1.32 -0.2,-0.44 -0.72,-0.88 -1.48,-1.24 -3.16,-1.24 -0.28,0 -0.64,0.08 -0.32,0.04 -1.08,0.16 -0.76,0.08 -1.8,0.2 -1.4,0.2 -2.24,0.64 -0.8,0.4 -2.04,1.56 -2.36,2.24 -3.36,4.16 -1,1.88 -1,4.12 0,3.32 2.04,5.44 2.08,2.12 5.36,2.16 z" />
      <path
         id="path3733"
         style="font-style:normal;font-variant:normal;font-weight:normal;font-stretch:normal;font-family:Purisa;-inkscape-font-specification:Purisa"
         d="m 256.3683,182.78935 q 0.68,0 1.2,0.44 0.52,0.4 0.52,0.68 0,0.48 -1.52,1.08 -2.48,1 -5.08,4.84 -2.56,3.8 -3.12,7.36 -0.64,4.04 -1.04,5.28 -0.4,1.28 -1.04,1.28 -0.56,0 -0.88,-0.4 -0.28,-0.4 -0.4,-0.88 -0.08,-0.48 -0.2,-1.76 -0.04,-0.24 -0.04,-0.36 -0.96,-10.08 -0.96,-15.92 0,-2.08 0.16,-2.56 0.44,-1.28 1.12,-1.28 0.64,0 0.64,1.08 0,1.8 0.56,5.8 0.56,4 0.84,4 0.36,0 1.48,-2.2 1.4,-2.6 3.72,-4.52 2.36,-1.96 4.04,-1.96 z" />
      <path
         id="path3735"
         style="font-style:normal;font-variant:normal;font-weight:normal;font-stretch:normal;font-family:Purisa;-inkscape-font-specification:Purisa"
         d="m 268.08826,192.82935 q -0.6,0 -2.56,-1.44 -1.96,-1.48 -1.96,-3 0,-1.44 2.04,-3.96 2.04,-2.56 4.92,-3.28 1.32,-0.36 3.48,-0.36 0.92,0 1.36,0.24 0.44,0.24 1.2,1.08 1.24,1.4 1.24,1.92 0,0.48 -0.52,0.48 -0.64,0 -1.08,-0.44 -0.44,-0.48 -1.08,-0.96 -0.64,-0.48 -1.72,-0.48 -1.4,0 -3,0.76 -1.6,0.76 -2.84,2.12 -1.76,1.88 -1.76,2.56 0,0.68 1.04,1.64 1.04,0.92 3.48,1.76 3.84,1.32 5.2,2.48 1.36,1.16 1.36,3.12 0,1.84 -0.64,3.36 -0.44,1.16 -1.88,2.6 -1.44,1.44 -2.84,1.44 -1.08,0 -2.8,-0.36 -1.72,-0.32 -2.6,-0.76 -0.72,-0.36 -1.32,-1.4 -0.6,-1.08 -0.6,-1.92 0,-0.44 0.2,-0.76 0.24,-0.36 0.56,-0.36 0.6,0 1.12,1.12 0.48,1 1.92,1.8 1.48,0.8 2.76,0.8 1.72,0 3.04,-2.04 1.32,-2.08 1.32,-3.24 0,-0.28 -0.16,-0.68 -0.12,-0.44 -0.68,-1.04 -0.56,-0.6 -1.44,-0.92 -0.84,-0.28 -1.96,-0.76 -1.12,-0.48 -1.88,-0.8 -0.72,-0.32 -0.92,-0.32 z" />
      <path
         id="path3737"
         style="font-style:normal;font-variant:normal;font-weight:normal;font-stretch:normal;font-family:Purisa;-inkscape-font-specification:Purisa"
         d="m 285.08821,179.42935 q 0.56,-0.48 0.96,-0.48 0.84,0 1.2,2.68 0.4,2.64 0.72,10.2 0.16,3.52 0.16,6.36 0,2.84 -0.24,3.12 -0.48,0.6 -1.2,0.6 -1,0 -1.24,-0.84 -0.2,-0.52 -0.6,-8.08 -0.4,-7.6 -0.4,-10.56 0,-2.48 0.64,-3 z m -0.24,-9.4 q 0,-0.56 0.44,-1.12 0.48,-0.56 0.84,-0.56 0.4,0 1.08,0.56 0.72,0.52 0.72,1.36 0,0.6 -0.36,1.04 -0.32,0.4 -0.88,0.4 -0.64,0 -1.24,-0.48 -0.6,-0.48 -0.6,-1.2 z" />
      <path
         id="path3739"
         style="font-style:normal;font-variant:normal;font-weight:normal;font-stretch:normal;font-family:Purisa;-inkscape-font-specification:Purisa"
         d="m 300.52815,184.22935 q -0.48,0 -2.04,0.44 -1.52,0.4 -2.44,0.4 -1.76,0 -1.76,-1.12 0,-0.44 0.64,-0.8 0.68,-0.36 2.6,-0.92 l 3.24,-0.96 0.08,-3.48 q 0.08,-3.72 0.56,-8.2 0.36,-3.32 0.64,-4.2 0.28,-0.88 1.24,-1.84 0.8,-0.8 1.28,-1.04 0.52,-0.24 1.44,-0.24 0.68,0 2.88,0.2 1.68,0.16 2.4,0.48 0.72,0.28 1.64,1.2 1.36,1.36 1.36,2.48 0,0.8 -0.64,1.68 -0.6,0.84 -0.92,0.84 -0.48,0 -0.48,-1.36 0,-1.28 -0.72,-1.96 -0.68,-0.72 -2.68,-1.36 -1.32,-0.4 -2.04,-0.4 -1.72,0 -2.68,2 -0.36,0.8 -0.68,4.6 -0.28,3.76 -0.28,6.92 0,2.28 0.16,2.88 0.2,0.56 1,0.56 0.48,0 2,-0.28 1.52,-0.28 2.52,-0.28 0.56,0 0.92,0.2 0.36,0.16 0.36,0.4 0,0.68 -3.44,1.72 l -3.44,1 -0.12,6.36 q 0,0.48 -0.04,1.32 0,0.8 0,1.12 0,3 0.28,4.64 0.28,1.64 0.56,2.36 0.28,0.72 0.28,1.56 0,1.2 -1.12,1.2 -2.12,0 -2.12,-11.16 0,-6.68 -0.24,-6.92 -0.04,-0.04 -0.2,-0.04 z" />
      <path
         id="path3741"
         style="font-style:normal;font-variant:normal;font-weight:normal;font-stretch:normal;font-family:Purisa;-inkscape-font-specification:Purisa"
         d="m 321.6881,190.70935 q 0,3.12 0.28,4.64 0.28,1.48 1.08,1.48 0.76,0 2.48,-1.88 1.76,-1.88 2.48,-3.52 0.92,-2 1.48,-4.8 0.56,-2.84 1,-4.32 0.44,-1.48 1.32,-1.48 0.44,0 0.8,0.36 0.36,0.36 0.36,0.92 0,0.64 -0.92,4.2 -0.88,3.56 -0.88,7.48 0,1.28 0.12,2.44 l 0.28,1.16 1.28,-0.64 q 1,-0.44 1.56,-0.44 1.04,0 1.04,0.76 0,0.96 -1.68,1.84 l -1.64,0.84 0.2,4.48 q -0.24,7.08 -0.52,7.48 -0.28,0.48 -1,0.48 -0.84,0 -2.52,-0.72 -0.96,-0.44 -1.52,-0.96 -0.52,-0.52 -1,-1.52 -1.12,-2.28 -1.12,-4.08 0,-0.64 0.12,-1 0.12,-0.32 0.6,-1.08 0.48,-0.72 0.88,-1.44 0.36,-0.68 1.16,-1.12 0.84,-0.48 1.04,-0.72 0.32,-0.32 0.6,-0.52 0.32,-0.2 0.4,-0.28 0.08,-0.08 0.08,-0.28 0,-0.48 -0.24,-1.8 -0.24,-1.36 -0.6,-1.36 -0.24,0 -1.08,1 -0.84,0.96 -2.12,1.96 -1.28,0.96 -2.56,0.96 -1.6,0 -2.64,-1.88 -0.52,-0.96 -0.68,-2.2 -0.12,-1.24 -0.12,-5.24 0.04,-4.52 0.32,-6.16 0.32,-1.68 1.16,-1.68 0.48,0 0.64,0.56 0.16,0.52 0.16,2.44 0,0.76 -0.04,2.6 -0.04,1.84 -0.04,3.04 z m 5.28,15.88 q 0,0.72 1.08,1.88 1.12,1.2 1.68,1.2 0.6,0 0.6,-2.8 -0.04,-0.76 -0.28,-1.88 -0.2,-1.12 -0.24,-1.56 l -0.24,-2.4 -1.12,1.72 q -1.48,2.32 -1.48,3.84 z" />
    </g>
  </g>
</svg>
